REM DIRINDEX 1\2,1\3\7,1\3\8,1\4\9,1\4\10,1\4\11,1\5\12,1\5\13,1\5\14,1\6\15,1\6\16,1\6\17
REM DIRNAME "folder01","folder02","folder03","folder04","folder05","folder06","folder07","folder08","folder09","folder10","folder11","folder12","folder13","folder14","folder15","folder16","folder17"
TITLE ""
FILE "2Q_t_0901-0917.mp3" MP3
  TRACK 01 AUDIO
    TITLE "0:"
    INDEX 01 00:00:00
  TRACK 02 AUDIO
    TITLE "2:cjc174_3580"
    INDEX 01 00:00:12
  TRACK 03 AUDIO
    TITLE "0:"
    INDEX 01 00:03:50
  TRACK 04 AUDIO
    TITLE "2:cjc174_3581"
    INDEX 01 00:04:57
  TRACK 05 AUDIO
    TITLE "0:"
    INDEX 01 00:06:19
  TRACK 06 AUDIO
    TITLE "2:cjc174_3582"
    INDEX 01 00:06:68
  TRACK 07 AUDIO
    TITLE "0:"
    INDEX 01 00:07:71
  TRACK 08 AUDIO
    TITLE "7:cjc174_3583"
    INDEX 01 00:08:41
  TRACK 09 AUDIO
    TITLE "0:"
    INDEX 01 00:09:54
  TRACK 10 AUDIO
    TITLE "8:cjc174_3584"
    INDEX 01 00:10:26
  TRACK 11 AUDIO
    TITLE "0:"
    INDEX 01 00:11:65
  TRACK 12 AUDIO
    TITLE "7:cjc174_3585"
    INDEX 01 00:12:35
  TRACK 13 AUDIO
    TITLE "0:"
    INDEX 01 00:13:34
  TRACK 14 AUDIO
    TITLE "8:cjc174_3586"
    INDEX 01 00:14:14
  TRACK 15 AUDIO
    TITLE "0:"
    INDEX 01 00:17:28
  TRACK 16 AUDIO
    TITLE "7:cjc174_3587"
    INDEX 01 00:17:73
  TRACK 17 AUDIO
    TITLE "0:"
    INDEX 01 00:19:15
  TRACK 18 AUDIO
    TITLE "8:cjc174_3588"
    INDEX 01 00:19:61
  TRACK 19 AUDIO
    TITLE "0:"
    INDEX 01 00:21:18
  TRACK 20 AUDIO
    TITLE "7:cjc174_3589"
    INDEX 01 00:21:63
  TRACK 21 AUDIO
    TITLE "0:"
    INDEX 01 00:22:65
  TRACK 22 AUDIO
    TITLE "8:cjc174_3590"
    INDEX 01 00:23:41
  TRACK 23 AUDIO
    TITLE "0:"
    INDEX 01 00:27:60
  TRACK 24 AUDIO
    TITLE "7:cjc174_3591"
    INDEX 01 00:28:28
  TRACK 25 AUDIO
    TITLE "0:"
    INDEX 01 00:29:43
  TRACK 26 AUDIO
    TITLE "8:cjc174_3592"
    INDEX 01 00:30:17
  TRACK 27 AUDIO
    TITLE "0:"
    INDEX 01 00:32:57
  TRACK 28 AUDIO
    TITLE "7:cjc174_3593"
    INDEX 01 00:33:25
  TRACK 29 AUDIO
    TITLE "0:"
    INDEX 01 00:34:44
  TRACK 30 AUDIO
    TITLE "8:cjc174_3594"
    INDEX 01 00:35:16
  TRACK 31 AUDIO
    TITLE "0:"
    INDEX 01 00:36:73
  TRACK 32 AUDIO
    TITLE "7:cjc174_3595"
    INDEX 01 00:37:41
  TRACK 33 AUDIO
    TITLE "0:"
    INDEX 01 00:38:72
  TRACK 34 AUDIO
    TITLE "8:cjc174_3596"
    INDEX 01 00:39:42
  TRACK 35 AUDIO
    TITLE "0:"
    INDEX 01 00:41:03
  TRACK 36 AUDIO
    TITLE "7:cjc174_3597"
    INDEX 01 00:41:46
  TRACK 37 AUDIO
    TITLE "0:"
    INDEX 01 00:42:52
  TRACK 38 AUDIO
    TITLE "8:cjc174_3598"
    INDEX 01 00:43:40
  TRACK 39 AUDIO
    TITLE "0:"
    INDEX 01 00:44:60
  TRACK 40 AUDIO
    TITLE "7:cjc174_3599"
    INDEX 01 00:45:31
  TRACK 41 AUDIO
    TITLE "0:"
    INDEX 01 00:46:38
  TRACK 42 AUDIO
    TITLE "8:cjc174_3600"
    INDEX 01 00:47:18
  TRACK 43 AUDIO
    TITLE "0:"
    INDEX 01 00:48:56
  TRACK 44 AUDIO
    TITLE "7:cjc174_3601"
    INDEX 01 00:49:26
  TRACK 45 AUDIO
    TITLE "0:"
    INDEX 01 00:50:49
  TRACK 46 AUDIO
    TITLE "8:cjc174_3602"
    INDEX 01 00:51:21
  TRACK 47 AUDIO
    TITLE "0:"
    INDEX 01 00:55:07
  TRACK 48 AUDIO
    TITLE "7:cjc174_3603"
    INDEX 01 00:55:52
  TRACK 49 AUDIO
    TITLE "0:"
    INDEX 01 00:56:58
  TRACK 50 AUDIO
    TITLE "8:cjc174_3604"
    INDEX 01 00:57:30
  TRACK 51 AUDIO
    TITLE "0:"
    INDEX 01 00:58:43
  TRACK 52 AUDIO
    TITLE "7:cjc174_3605"
    INDEX 01 00:59:11
  TRACK 53 AUDIO
    TITLE "0:"
    INDEX 01 01:00:12
  TRACK 54 AUDIO
    TITLE "8:cjc174_3606"
    INDEX 01 01:00:60
  TRACK 55 AUDIO
    TITLE "0:"
    INDEX 01 01:02:66
  TRACK 56 AUDIO
    TITLE "7:cjc174_3607"
    INDEX 01 01:03:36
  TRACK 57 AUDIO
    TITLE "0:"
    INDEX 01 01:04:40
  TRACK 58 AUDIO
    TITLE "8:cjc174_3608"
    INDEX 01 01:05:12
  TRACK 59 AUDIO
    TITLE "0:"
    INDEX 01 01:06:37
  TRACK 60 AUDIO
    TITLE "7:cjc174_3609"
    INDEX 01 01:07:05
  TRACK 61 AUDIO
    TITLE "0:"
    INDEX 01 01:08:36
  TRACK 62 AUDIO
    TITLE "8:cjc174_3610"
    INDEX 01 01:09:10
  TRACK 63 AUDIO
    TITLE "0:"
    INDEX 01 01:12:43
  TRACK 64 AUDIO
    TITLE "7:cjc174_3611"
    INDEX 01 01:13:11
  TRACK 65 AUDIO
    TITLE "0:"
    INDEX 01 01:14:44
  TRACK 66 AUDIO
    TITLE "8:cjc174_3612"
    INDEX 01 01:15:14
  TRACK 67 AUDIO
    TITLE "0:"
    INDEX 01 01:16:41
  TRACK 68 AUDIO
    TITLE "7:cjc174_3613"
    INDEX 01 01:17:13
  TRACK 69 AUDIO
    TITLE "0:"
    INDEX 01 01:18:46
  TRACK 70 AUDIO
    TITLE "8:cjc174_3614"
    INDEX 01 01:19:16
  TRACK 71 AUDIO
    TITLE "0:"
    INDEX 01 01:22:28
  TRACK 72 AUDIO
    TITLE "7:cjc174_3615"
    INDEX 01 01:22:71
  TRACK 73 AUDIO
    TITLE "0:"
    INDEX 01 01:24:23
  TRACK 74 AUDIO
    TITLE "8:cjc174_3616"
    INDEX 01 01:24:68
  TRACK 75 AUDIO
    TITLE "0:"
    INDEX 01 01:28:03
